<?xml version="1.0" encoding="UTF-8"?>
<svg xmlns="http://www.w3.org/2000/svg" width="1024" height="600" viewBox="0 0 1024 600"><style>
            .chart-text {
                font-family: 'MS Gothic', 'MS PGothic', 'Courier New', Courier, 'Lucida Console', monospace;
            }
        </style><text class="chart-text" x="512" y="24" text-anchor="middle" style="font-size: 14px;">Sales Distribution by Store</text><text class="chart-text" x="512" y="43" text-anchor="middle" style="font-size: 14px;">Comparing sales data distribution across stores</text><line x1="41.802734375" y1="538" x2="934" y2="538" stroke="black" stroke-width="1"/><line x1="41.802734375" y1="538" x2="41.802734375" y2="65" stroke="black" stroke-width="1"/><line x1="41.802734375" y1="538" x2="41.802734375" y2="543" stroke="black" stroke-width="1"/><text class="chart-text" x="41.802734375" y="564" text-anchor="middle" style="font-size: 14px;">0</text><line x1="131.0224609375" y1="538" x2="131.0224609375" y2="543" stroke="black" stroke-width="1"/><text class="chart-text" x="131.0224609375" y="564" text-anchor="middle" style="font-size: 14px;">10</text><line x1="220.2421875" y1="538" x2="220.2421875" y2="543" stroke="black" stroke-width="1"/><text class="chart-text" x="220.2421875" y="564" text-anchor="middle" style="font-size: 14px;">20</text><line x1="309.4619140625" y1="538" x2="309.4619140625" y2="543" stroke="black" stroke-width="1"/><text class="chart-text" x="309.4619140625" y="564" text-anchor="middle" style="font-size: 14px;">30</text><line x1="398.681640625" y1="538" x2="398.681640625" y2="543" stroke="black" stroke-width="1"/><text class="chart-text" x="398.681640625" y="564" text-anchor="middle" style="font-size: 14px;">40</text><line x1="487.9013671875" y1="538" x2="487.9013671875" y2="543" stroke="black" stroke-width="1"/><text class="chart-text" x="487.9013671875" y="564" text-anchor="middle" style="font-size: 14px;">50</text><line x1="577.12109375" y1="538" x2="577.12109375" y2="543" stroke="black" stroke-width="1"/><text class="chart-text" x="577.12109375" y="564" text-anchor="middle" style="font-size: 14px;">60</text><line x1="666.3408203125" y1="538" x2="666.3408203125" y2="543" stroke="black" stroke-width="1"/><text class="chart-text" x="666.3408203125" y="564" text-anchor="middle" style="font-size: 14px;">70</text><line x1="755.560546875" y1="538" x2="755.560546875" y2="543" stroke="black" stroke-width="1"/><text class="chart-text" x="755.560546875" y="564" text-anchor="middle" style="font-size: 14px;">80</text><line x1="844.7802734375" y1="538" x2="844.7802734375" y2="543" stroke="black" stroke-width="1"/><text class="chart-text" x="844.7802734375" y="564" text-anchor="middle" style="font-size: 14px;">90</text><line x1="934" y1="538" x2="934" y2="543" stroke="black" stroke-width="1"/><text class="chart-text" x="934" y="564" text-anchor="middle" style="font-size: 14px;">100</text><line x1="41.802734375" y1="538" x2="36.802734375" y2="538" stroke="black" stroke-width="1"/><text class="chart-text" x="31.802734375" y="538" text-anchor="end" dominant-baseline="middle" style="font-size: 14px;">0</text><line x1="41.802734375" y1="443.4" x2="36.802734375" y2="443.4" stroke="black" stroke-width="1"/><text class="chart-text" x="31.802734375" y="443.4" text-anchor="end" dominant-baseline="middle" style="font-size: 14px;">2</text><line x1="41.802734375" y1="348.79999999999995" x2="36.802734375" y2="348.79999999999995" stroke="black" stroke-width="1"/><text class="chart-text" x="31.802734375" y="348.79999999999995" text-anchor="end" dominant-baseline="middle" style="font-size: 14px;">4</text><line x1="41.802734375" y1="254.2" x2="36.802734375" y2="254.2" stroke="black" stroke-width="1"/><text class="chart-text" x="31.802734375" y="254.2" text-anchor="end" dominant-baseline="middle" style="font-size: 14px;">6</text><line x1="41.802734375" y1="159.59999999999997" x2="36.802734375" y2="159.59999999999997" stroke="black" stroke-width="1"/><text class="chart-text" x="31.802734375" y="159.59999999999997" text-anchor="end" dominant-baseline="middle" style="font-size: 14px;">8</text><line x1="41.802734375" y1="65" x2="36.802734375" y2="65" stroke="black" stroke-width="1"/><text class="chart-text" x="31.802734375" y="65" text-anchor="end" dominant-baseline="middle" style="font-size: 14px;">10</text><text class="chart-text" x="487.9013671875" y="590" text-anchor="middle" style="font-size: 14px;">Sales</text><text class="chart-text" x="1.802734375" y="301.5" text-anchor="middle" transform="rotate(-90 1.802734375 301.5)" style="font-size: 14px;">Frequency</text><line x1="41.802734375" y1="65" x2="41.802734375" y2="538" stroke="#e0e0e0" stroke-width="1" stroke-dasharray="2,2"/><line x1="131.0224609375" y1="65" x2="131.0224609375" y2="538" stroke="#e0e0e0" stroke-width="1" stroke-dasharray="2,2"/><line x1="220.2421875" y1="65" x2="220.2421875" y2="538" stroke="#e0e0e0" stroke-width="1" stroke-dasharray="2,2"/><line x1="309.4619140625" y1="65" x2="309.4619140625" y2="538" stroke="#e0e0e0" stroke-width="1" stroke-dasharray="2,2"/><line x1="398.681640625" y1="65" x2="398.681640625" y2="538" stroke="#e0e0e0" stroke-width="1" stroke-dasharray="2,2"/><line x1="487.9013671875" y1="65" x2="487.9013671875" y2="538" stroke="#e0e0e0" stroke-width="1" stroke-dasharray="2,2"/><line x1="577.12109375" y1="65" x2="577.12109375" y2="538" stroke="#e0e0e0" stroke-width="1" stroke-dasharray="2,2"/><line x1="666.3408203125" y1="65" x2="666.3408203125" y2="538" stroke="#e0e0e0" stroke-width="1" stroke-dasharray="2,2"/><line x1="755.560546875" y1="65" x2="755.560546875" y2="538" stroke="#e0e0e0" stroke-width="1" stroke-dasharray="2,2"/><line x1="844.7802734375" y1="65" x2="844.7802734375" y2="538" stroke="#e0e0e0" stroke-width="1" stroke-dasharray="2,2"/><line x1="934" y1="65" x2="934" y2="538" stroke="#e0e0e0" stroke-width="1" stroke-dasharray="2,2"/><line x1="41.802734375" y1="538" x2="934" y2="538" stroke="#e0e0e0" stroke-width="1" stroke-dasharray="2,2"/><line x1="41.802734375" y1="443.4" x2="934" y2="443.4" stroke="#e0e0e0" stroke-width="1" stroke-dasharray="2,2"/><line x1="41.802734375" y1="348.79999999999995" x2="934" y2="348.79999999999995" stroke="#e0e0e0" stroke-width="1" stroke-dasharray="2,2"/><line x1="41.802734375" y1="254.2" x2="934" y2="254.2" stroke="#e0e0e0" stroke-width="1" stroke-dasharray="2,2"/><line x1="41.802734375" y1="159.59999999999997" x2="934" y2="159.59999999999997" stroke="#e0e0e0" stroke-width="1" stroke-dasharray="2,2"/><line x1="41.802734375" y1="65" x2="934" y2="65" stroke="#e0e0e0" stroke-width="1" stroke-dasharray="2,2"/></svg>