<?xml version="1.0" encoding="UTF-8"?>
<svg xmlns="http://www.w3.org/2000/svg" width="1024" height="600" viewBox="0 0 1024 600"><style>
            .chart-text {
                font-family: 'MS Gothic', 'MS PGothic', 'Courier New', Courier, 'Lucida Console', monospace;
            }
        </style><text class="chart-text" x="512" y="24" text-anchor="middle" style="font-size: 14px;">Sales Distribution by Store</text><text class="chart-text" x="512" y="43" text-anchor="middle" style="font-size: 14px;">Comparing sales data distribution across stores</text><line x1="41.802734375" y1="538" x2="892" y2="538" stroke="black" stroke-width="1"/><line x1="41.802734375" y1="538" x2="41.802734375" y2="65" stroke="black" stroke-width="1"/><line x1="41.802734375" y1="538" x2="41.802734375" y2="543" stroke="black" stroke-width="1"/><text class="chart-text" x="41.802734375" y="564" text-anchor="middle" style="font-size: 14px;">10,000</text><line x1="102.53111049107142" y1="538" x2="102.53111049107142" y2="543" stroke="black" stroke-width="1"/><text class="chart-text" x="102.53111049107142" y="564" text-anchor="middle" style="font-size: 14px;">12,000</text><line x1="163.25948660714283" y1="538" x2="163.25948660714283" y2="543" stroke="black" stroke-width="1"/><text class="chart-text" x="163.25948660714283" y="564" text-anchor="middle" style="font-size: 14px;">14,000</text><line x1="223.98786272321428" y1="538" x2="223.98786272321428" y2="543" stroke="black" stroke-width="1"/><text class="chart-text" x="223.98786272321428" y="564" text-anchor="middle" style="font-size: 14px;">16,000</text><line x1="284.71623883928567" y1="538" x2="284.71623883928567" y2="543" stroke="black" stroke-width="1"/><text class="chart-text" x="284.71623883928567" y="564" text-anchor="middle" style="font-size: 14px;">18,000</text><line x1="345.44461495535717" y1="538" x2="345.44461495535717" y2="543" stroke="black" stroke-width="1"/><text class="chart-text" x="345.44461495535717" y="564" text-anchor="middle" style="font-size: 14px;">20,000</text><line x1="406.17299107142856" y1="538" x2="406.17299107142856" y2="543" stroke="black" stroke-width="1"/><text class="chart-text" x="406.17299107142856" y="564" text-anchor="middle" style="font-size: 14px;">22,000</text><line x1="466.9013671875" y1="538" x2="466.9013671875" y2="543" stroke="black" stroke-width="1"/><text class="chart-text" x="466.9013671875" y="564" text-anchor="middle" style="font-size: 14px;">24,000</text><line x1="527.6297433035713" y1="538" x2="527.6297433035713" y2="543" stroke="black" stroke-width="1"/><text class="chart-text" x="527.6297433035713" y="564" text-anchor="middle" style="font-size: 14px;">26,000</text><line x1="588.3581194196429" y1="538" x2="588.3581194196429" y2="543" stroke="black" stroke-width="1"/><text class="chart-text" x="588.3581194196429" y="564" text-anchor="middle" style="font-size: 14px;">28,000</text><line x1="649.0864955357143" y1="538" x2="649.0864955357143" y2="543" stroke="black" stroke-width="1"/><text class="chart-text" x="649.0864955357143" y="564" text-anchor="middle" style="font-size: 14px;">30,000</text><line x1="709.8148716517857" y1="538" x2="709.8148716517857" y2="543" stroke="black" stroke-width="1"/><text class="chart-text" x="709.8148716517857" y="564" text-anchor="middle" style="font-size: 14px;">32,000</text><line x1="770.5432477678571" y1="538" x2="770.5432477678571" y2="543" stroke="black" stroke-width="1"/><text class="chart-text" x="770.5432477678571" y="564" text-anchor="middle" style="font-size: 14px;">34,000</text><line x1="831.2716238839286" y1="538" x2="831.2716238839286" y2="543" stroke="black" stroke-width="1"/><text class="chart-text" x="831.2716238839286" y="564" text-anchor="middle" style="font-size: 14px;">36,000</text><line x1="892" y1="538" x2="892" y2="543" stroke="black" stroke-width="1"/><text class="chart-text" x="892" y="564" text-anchor="middle" style="font-size: 14px;">38,000</text><line x1="41.802734375" y1="538" x2="36.802734375" y2="538" stroke="black" stroke-width="1"/><text class="chart-text" x="31.802734375" y="538" text-anchor="end" dominant-baseline="middle" style="font-size: 14px;">0</text><line x1="41.802734375" y1="470.42857142857144" x2="36.802734375" y2="470.42857142857144" stroke="black" stroke-width="1"/><text class="chart-text" x="31.802734375" y="470.42857142857144" text-anchor="end" dominant-baseline="middle" style="font-size: 14px;">2</text><line x1="41.802734375" y1="402.8571428571429" x2="36.802734375" y2="402.8571428571429" stroke="black" stroke-width="1"/><text class="chart-text" x="31.802734375" y="402.8571428571429" text-anchor="end" dominant-baseline="middle" style="font-size: 14px;">4</text><line x1="41.802734375" y1="335.28571428571433" x2="36.802734375" y2="335.28571428571433" stroke="black" stroke-width="1"/><text class="chart-text" x="31.802734375" y="335.28571428571433" text-anchor="end" dominant-baseline="middle" style="font-size: 14px;">6</text><line x1="41.802734375" y1="267.7142857142857" x2="36.802734375" y2="267.7142857142857" stroke="black" stroke-width="1"/><text class="chart-text" x="31.802734375" y="267.7142857142857" text-anchor="end" dominant-baseline="middle" style="font-size: 14px;">8</text><line x1="41.802734375" y1="200.1428571428571" x2="36.802734375" y2="200.1428571428571" stroke="black" stroke-width="1"/><text class="chart-text" x="31.802734375" y="200.1428571428571" text-anchor="end" dominant-baseline="middle" style="font-size: 14px;">10</text><line x1="41.802734375" y1="132.5714285714286" x2="36.802734375" y2="132.5714285714286" stroke="black" stroke-width="1"/><text class="chart-text" x="31.802734375" y="132.5714285714286" text-anchor="end" dominant-baseline="middle" style="font-size: 14px;">12</text><line x1="41.802734375" y1="65" x2="36.802734375" y2="65" stroke="black" stroke-width="1"/><text class="chart-text" x="31.802734375" y="65" text-anchor="end" dominant-baseline="middle" style="font-size: 14px;">14</text><text class="chart-text" x="466.9013671875" y="590" text-anchor="middle" style="font-size: 14px;">Sales</text><text class="chart-text" x="1.802734375" y="301.5" text-anchor="middle" transform="rotate(-90 1.802734375 301.5)" style="font-size: 14px;">Frequency</text><rect x="922" y="54" width="20" height="12" fill="blue" opacity="0.7" stroke="blue" stroke-width="0.5"/><text class="chart-text" x="952" y="60" style="font-size: 14px;">上野店</text><rect x="922" y="79" width="20" height="12" fill="red" opacity="0.7" stroke="red" stroke-width="0.5"/><text class="chart-text" x="952" y="85" style="font-size: 14px;">東京店</text><rect x="922" y="104" width="20" height="12" fill="green" opacity="0.7" stroke="green" stroke-width="0.5"/><text class="chart-text" x="952" y="110" style="font-size: 14px;">渋谷店</text><line x1="41.802734375" y1="65" x2="41.802734375" y2="538" stroke="#e0e0e0" stroke-width="1" stroke-dasharray="2,2"/><line x1="102.53111049107142" y1="65" x2="102.53111049107142" y2="538" stroke="#e0e0e0" stroke-width="1" stroke-dasharray="2,2"/><line x1="163.25948660714283" y1="65" x2="163.25948660714283" y2="538" stroke="#e0e0e0" stroke-width="1" stroke-dasharray="2,2"/><line x1="223.98786272321428" y1="65" x2="223.98786272321428" y2="538" stroke="#e0e0e0" stroke-width="1" stroke-dasharray="2,2"/><line x1="284.71623883928567" y1="65" x2="284.71623883928567" y2="538" stroke="#e0e0e0" stroke-width="1" stroke-dasharray="2,2"/><line x1="345.44461495535717" y1="65" x2="345.44461495535717" y2="538" stroke="#e0e0e0" stroke-width="1" stroke-dasharray="2,2"/><line x1="406.17299107142856" y1="65" x2="406.17299107142856" y2="538" stroke="#e0e0e0" stroke-width="1" stroke-dasharray="2,2"/><line x1="466.9013671875" y1="65" x2="466.9013671875" y2="538" stroke="#e0e0e0" stroke-width="1" stroke-dasharray="2,2"/><line x1="527.6297433035713" y1="65" x2="527.6297433035713" y2="538" stroke="#e0e0e0" stroke-width="1" stroke-dasharray="2,2"/><line x1="588.3581194196429" y1="65" x2="588.3581194196429" y2="538" stroke="#e0e0e0" stroke-width="1" stroke-dasharray="2,2"/><line x1="649.0864955357143" y1="65" x2="649.0864955357143" y2="538" stroke="#e0e0e0" stroke-width="1" stroke-dasharray="2,2"/><line x1="709.8148716517857" y1="65" x2="709.8148716517857" y2="538" stroke="#e0e0e0" stroke-width="1" stroke-dasharray="2,2"/><line x1="770.5432477678571" y1="65" x2="770.5432477678571" y2="538" stroke="#e0e0e0" stroke-width="1" stroke-dasharray="2,2"/><line x1="831.2716238839286" y1="65" x2="831.2716238839286" y2="538" stroke="#e0e0e0" stroke-width="1" stroke-dasharray="2,2"/><line x1="892" y1="65" x2="892" y2="538" stroke="#e0e0e0" stroke-width="1" stroke-dasharray="2,2"/><line x1="41.802734375" y1="538" x2="892" y2="538" stroke="#e0e0e0" stroke-width="1" stroke-dasharray="2,2"/><line x1="41.802734375" y1="470.42857142857144" x2="892" y2="470.42857142857144" stroke="#e0e0e0" stroke-width="1" stroke-dasharray="2,2"/><line x1="41.802734375" y1="402.8571428571429" x2="892" y2="402.8571428571429" stroke="#e0e0e0" stroke-width="1" stroke-dasharray="2,2"/><line x1="41.802734375" y1="335.28571428571433" x2="892" y2="335.28571428571433" stroke="#e0e0e0" stroke-width="1" stroke-dasharray="2,2"/><line x1="41.802734375" y1="267.7142857142857" x2="892" y2="267.7142857142857" stroke="#e0e0e0" stroke-width="1" stroke-dasharray="2,2"/><line x1="41.802734375" y1="200.1428571428571" x2="892" y2="200.1428571428571" stroke="#e0e0e0" stroke-width="1" stroke-dasharray="2,2"/><line x1="41.802734375" y1="132.5714285714286" x2="892" y2="132.5714285714286" stroke="#e0e0e0" stroke-width="1" stroke-dasharray="2,2"/><line x1="41.802734375" y1="65" x2="892" y2="65" stroke="#e0e0e0" stroke-width="1" stroke-dasharray="2,2"/><path d="M 94.9400634765625 538 C 126.82246093750001 538, 137.4499267578125 578.5428571428572, 201.2147216796875 538 C 264.9795166015625 497.45714285714286, 243.72458496093748 514.35, 307.4893798828125 402.8571428571429 C 371.2541748046875 291.3642857142857, 349.9992431640625 257.5785714285714, 413.7640380859375 166.3571428571429 C 477.52883300781247 75.1357142857143, 456.2739013671875 58.24285714285719, 520.0386962890625 98.78571428571428 C 583.8034912109374 139.32857142857142, 562.5485595703126 169.73571428571427, 626.3133544921875 301.5 C 690.0781494140624 433.26428571428573, 668.8232177734376 467.05, 732.5880126953125 538 C 796.3528076171874 608.95, 806.9802734375 538, 838.8626708984375 538" fill="none" stroke="blue" stroke-width="2" opacity="0.7"/><path d="M 94.9400634765625 538 C 126.82246093750001 538, 137.4499267578125 568.4071428571428, 201.2147216796875 538 C 264.9795166015625 507.59285714285716, 243.72458496093748 487.32142857142856, 307.4893798828125 436.64285714285717 C 371.2541748046875 385.96428571428567, 349.9992431640625 450.15714285714284, 413.7640380859375 369.07142857142856 C 477.52883300781247 287.98571428571427, 456.2739013671875 217.03571428571428, 520.0386962890625 166.3571428571429 C 583.8034912109374 115.67857142857139, 562.5485595703126 139.32857142857142, 626.3133544921875 200.1428571428571 C 690.0781494140624 260.9571428571429, 668.8232177734376 277.85, 732.5880126953125 369.07142857142856 C 796.3528076171874 460.29285714285714, 806.9802734375 463.6714285714286, 838.8626708984375 504.2142857142857" fill="none" stroke="red" stroke-width="2" opacity="0.7"/><path d="M 94.9400634765625 436.64285714285717 C 126.82246093750001 416.37142857142857, 137.4499267578125 429.88571428571424, 201.2147216796875 369.07142857142856 C 264.9795166015625 308.25714285714287, 243.72458496093748 244.06428571428575, 307.4893798828125 233.9285714285714 C 371.2541748046875 223.7928571428571, 349.9992431640625 294.74285714285713, 413.7640380859375 335.28571428571433 C 477.52883300781247 375.8285714285714, 456.2739013671875 318.3928571428571, 520.0386962890625 369.07142857142856 C 583.8034912109374 419.75, 562.5485595703126 453.5357142857143, 626.3133544921875 504.2142857142857 C 690.0781494140624 554.8928571428571, 668.8232177734376 538, 732.5880126953125 538 C 796.3528076171874 538, 806.9802734375 514.35, 838.8626708984375 504.2142857142857" fill="none" stroke="green" stroke-width="2" opacity="0.7"/></svg>