<?xml version="1.0" encoding="UTF-8"?>
<svg xmlns="http://www.w3.org/2000/svg" width="1024" height="600" viewBox="0 0 1024 600"><style>
            .chart-text {
                font-family: 'MS Gothic', 'MS PGothic', 'Courier New', Courier, 'Lucida Console', monospace;
            }
        </style><text class="chart-text" x="512" y="24" text-anchor="middle" style="font-size: 14px;">Sales Distribution by Store</text><text class="chart-text" x="512" y="43" text-anchor="middle" style="font-size: 14px;">Comparing sales data distribution across stores</text><line x1="41.802734375" y1="538" x2="824.7822265625" y2="538" stroke="black" stroke-width="1"/><line x1="41.802734375" y1="538" x2="41.802734375" y2="65" stroke="black" stroke-width="1"/><line x1="41.802734375" y1="538" x2="41.802734375" y2="543" stroke="black" stroke-width="1"/><text class="chart-text" x="41.802734375" y="564" text-anchor="middle" style="font-size: 14px;">10,000</text><line x1="97.72984095982142" y1="538" x2="97.72984095982142" y2="543" stroke="black" stroke-width="1"/><text class="chart-text" x="97.72984095982142" y="564" text-anchor="middle" style="font-size: 14px;">12,000</text><line x1="153.65694754464283" y1="538" x2="153.65694754464283" y2="543" stroke="black" stroke-width="1"/><text class="chart-text" x="153.65694754464283" y="564" text-anchor="middle" style="font-size: 14px;">14,000</text><line x1="209.58405412946428" y1="538" x2="209.58405412946428" y2="543" stroke="black" stroke-width="1"/><text class="chart-text" x="209.58405412946428" y="564" text-anchor="middle" style="font-size: 14px;">16,000</text><line x1="265.51116071428567" y1="538" x2="265.51116071428567" y2="543" stroke="black" stroke-width="1"/><text class="chart-text" x="265.51116071428567" y="564" text-anchor="middle" style="font-size: 14px;">18,000</text><line x1="321.43826729910717" y1="538" x2="321.43826729910717" y2="543" stroke="black" stroke-width="1"/><text class="chart-text" x="321.43826729910717" y="564" text-anchor="middle" style="font-size: 14px;">20,000</text><line x1="377.36537388392856" y1="538" x2="377.36537388392856" y2="543" stroke="black" stroke-width="1"/><text class="chart-text" x="377.36537388392856" y="564" text-anchor="middle" style="font-size: 14px;">22,000</text><line x1="433.29248046875" y1="538" x2="433.29248046875" y2="543" stroke="black" stroke-width="1"/><text class="chart-text" x="433.29248046875" y="564" text-anchor="middle" style="font-size: 14px;">24,000</text><line x1="489.2195870535714" y1="538" x2="489.2195870535714" y2="543" stroke="black" stroke-width="1"/><text class="chart-text" x="489.2195870535714" y="564" text-anchor="middle" style="font-size: 14px;">26,000</text><line x1="545.1466936383929" y1="538" x2="545.1466936383929" y2="543" stroke="black" stroke-width="1"/><text class="chart-text" x="545.1466936383929" y="564" text-anchor="middle" style="font-size: 14px;">28,000</text><line x1="601.0738002232143" y1="538" x2="601.0738002232143" y2="543" stroke="black" stroke-width="1"/><text class="chart-text" x="601.0738002232143" y="564" text-anchor="middle" style="font-size: 14px;">30,000</text><line x1="657.0009068080357" y1="538" x2="657.0009068080357" y2="543" stroke="black" stroke-width="1"/><text class="chart-text" x="657.0009068080357" y="564" text-anchor="middle" style="font-size: 14px;">32,000</text><line x1="712.9280133928571" y1="538" x2="712.9280133928571" y2="543" stroke="black" stroke-width="1"/><text class="chart-text" x="712.9280133928571" y="564" text-anchor="middle" style="font-size: 14px;">34,000</text><line x1="768.8551199776786" y1="538" x2="768.8551199776786" y2="543" stroke="black" stroke-width="1"/><text class="chart-text" x="768.8551199776786" y="564" text-anchor="middle" style="font-size: 14px;">36,000</text><line x1="824.7822265625" y1="538" x2="824.7822265625" y2="543" stroke="black" stroke-width="1"/><text class="chart-text" x="824.7822265625" y="564" text-anchor="middle" style="font-size: 14px;">38,000</text><line x1="41.802734375" y1="538" x2="36.802734375" y2="538" stroke="black" stroke-width="1"/><text class="chart-text" x="31.802734375" y="538" text-anchor="end" dominant-baseline="middle" style="font-size: 14px;">0</text><line x1="41.802734375" y1="470.42857142857144" x2="36.802734375" y2="470.42857142857144" stroke="black" stroke-width="1"/><text class="chart-text" x="31.802734375" y="470.42857142857144" text-anchor="end" dominant-baseline="middle" style="font-size: 14px;">2</text><line x1="41.802734375" y1="402.8571428571429" x2="36.802734375" y2="402.8571428571429" stroke="black" stroke-width="1"/><text class="chart-text" x="31.802734375" y="402.8571428571429" text-anchor="end" dominant-baseline="middle" style="font-size: 14px;">4</text><line x1="41.802734375" y1="335.28571428571433" x2="36.802734375" y2="335.28571428571433" stroke="black" stroke-width="1"/><text class="chart-text" x="31.802734375" y="335.28571428571433" text-anchor="end" dominant-baseline="middle" style="font-size: 14px;">6</text><line x1="41.802734375" y1="267.7142857142857" x2="36.802734375" y2="267.7142857142857" stroke="black" stroke-width="1"/><text class="chart-text" x="31.802734375" y="267.7142857142857" text-anchor="end" dominant-baseline="middle" style="font-size: 14px;">8</text><line x1="41.802734375" y1="200.1428571428571" x2="36.802734375" y2="200.1428571428571" stroke="black" stroke-width="1"/><text class="chart-text" x="31.802734375" y="200.1428571428571" text-anchor="end" dominant-baseline="middle" style="font-size: 14px;">10</text><line x1="41.802734375" y1="132.5714285714286" x2="36.802734375" y2="132.5714285714286" stroke="black" stroke-width="1"/><text class="chart-text" x="31.802734375" y="132.5714285714286" text-anchor="end" dominant-baseline="middle" style="font-size: 14px;">12</text><line x1="41.802734375" y1="65" x2="36.802734375" y2="65" stroke="black" stroke-width="1"/><text class="chart-text" x="31.802734375" y="65" text-anchor="end" dominant-baseline="middle" style="font-size: 14px;">14</text><text class="chart-text" x="433.29248046875" y="590" text-anchor="middle" style="font-size: 14px;">Sales</text><text class="chart-text" x="1.802734375" y="301.5" text-anchor="middle" transform="rotate(-90 1.802734375 301.5)" style="font-size: 14px;">Frequency</text><rect x="854.7822265625" y="54" width="20" height="12" fill="blue" opacity="0.7" stroke="blue" stroke-width="0.5"/><text class="chart-text" x="884.7822265625" y="60" style="font-size: 14px;">Shibuya Store</text><rect x="854.7822265625" y="79" width="20" height="12" fill="red" opacity="0.7" stroke="red" stroke-width="0.5"/><text class="chart-text" x="884.7822265625" y="85" style="font-size: 14px;">Tokyo Store</text><rect x="854.7822265625" y="104" width="20" height="12" fill="green" opacity="0.7" stroke="green" stroke-width="0.5"/><text class="chart-text" x="884.7822265625" y="110" style="font-size: 14px;">Ueno Store</text><line x1="41.802734375" y1="65" x2="41.802734375" y2="538" stroke="#e0e0e0" stroke-width="1" stroke-dasharray="2,2"/><line x1="97.72984095982142" y1="65" x2="97.72984095982142" y2="538" stroke="#e0e0e0" stroke-width="1" stroke-dasharray="2,2"/><line x1="153.65694754464283" y1="65" x2="153.65694754464283" y2="538" stroke="#e0e0e0" stroke-width="1" stroke-dasharray="2,2"/><line x1="209.58405412946428" y1="65" x2="209.58405412946428" y2="538" stroke="#e0e0e0" stroke-width="1" stroke-dasharray="2,2"/><line x1="265.51116071428567" y1="65" x2="265.51116071428567" y2="538" stroke="#e0e0e0" stroke-width="1" stroke-dasharray="2,2"/><line x1="321.43826729910717" y1="65" x2="321.43826729910717" y2="538" stroke="#e0e0e0" stroke-width="1" stroke-dasharray="2,2"/><line x1="377.36537388392856" y1="65" x2="377.36537388392856" y2="538" stroke="#e0e0e0" stroke-width="1" stroke-dasharray="2,2"/><line x1="433.29248046875" y1="65" x2="433.29248046875" y2="538" stroke="#e0e0e0" stroke-width="1" stroke-dasharray="2,2"/><line x1="489.2195870535714" y1="65" x2="489.2195870535714" y2="538" stroke="#e0e0e0" stroke-width="1" stroke-dasharray="2,2"/><line x1="545.1466936383929" y1="65" x2="545.1466936383929" y2="538" stroke="#e0e0e0" stroke-width="1" stroke-dasharray="2,2"/><line x1="601.0738002232143" y1="65" x2="601.0738002232143" y2="538" stroke="#e0e0e0" stroke-width="1" stroke-dasharray="2,2"/><line x1="657.0009068080357" y1="65" x2="657.0009068080357" y2="538" stroke="#e0e0e0" stroke-width="1" stroke-dasharray="2,2"/><line x1="712.9280133928571" y1="65" x2="712.9280133928571" y2="538" stroke="#e0e0e0" stroke-width="1" stroke-dasharray="2,2"/><line x1="768.8551199776786" y1="65" x2="768.8551199776786" y2="538" stroke="#e0e0e0" stroke-width="1" stroke-dasharray="2,2"/><line x1="824.7822265625" y1="65" x2="824.7822265625" y2="538" stroke="#e0e0e0" stroke-width="1" stroke-dasharray="2,2"/><line x1="41.802734375" y1="538" x2="824.7822265625" y2="538" stroke="#e0e0e0" stroke-width="1" stroke-dasharray="2,2"/><line x1="41.802734375" y1="470.42857142857144" x2="824.7822265625" y2="470.42857142857144" stroke="#e0e0e0" stroke-width="1" stroke-dasharray="2,2"/><line x1="41.802734375" y1="402.8571428571429" x2="824.7822265625" y2="402.8571428571429" stroke="#e0e0e0" stroke-width="1" stroke-dasharray="2,2"/><line x1="41.802734375" y1="335.28571428571433" x2="824.7822265625" y2="335.28571428571433" stroke="#e0e0e0" stroke-width="1" stroke-dasharray="2,2"/><line x1="41.802734375" y1="267.7142857142857" x2="824.7822265625" y2="267.7142857142857" stroke="#e0e0e0" stroke-width="1" stroke-dasharray="2,2"/><line x1="41.802734375" y1="200.1428571428571" x2="824.7822265625" y2="200.1428571428571" stroke="#e0e0e0" stroke-width="1" stroke-dasharray="2,2"/><line x1="41.802734375" y1="132.5714285714286" x2="824.7822265625" y2="132.5714285714286" stroke="#e0e0e0" stroke-width="1" stroke-dasharray="2,2"/><line x1="41.802734375" y1="65" x2="824.7822265625" y2="65" stroke="#e0e0e0" stroke-width="1" stroke-dasharray="2,2"/><path d="M 90.73895263671875 436.64285714285717 C 120.10068359375 416.37142857142857, 129.88792724609374 429.88571428571424, 188.61138916015625 369.07142857142856 C 247.33485107421876 308.25714285714287, 227.76036376953124 244.06428571428575, 286.48382568359375 233.9285714285714 C 345.20728759765626 223.7928571428571, 325.63280029296874 294.74285714285713, 384.35626220703125 335.28571428571433 C 443.0797241210937 375.8285714285714, 423.50523681640624 318.3928571428571, 482.22869873046875 369.07142857142856 C 540.9521606445312 419.75, 521.3776733398438 453.5357142857143, 580.1011352539062 504.2142857142857 C 638.8245971679687 554.8928571428571, 619.2501098632813 538, 677.9735717773438 538 C 736.6970336914062 538, 746.48427734375 514.35, 775.8460083007812 504.2142857142857" fill="none" stroke="blue" stroke-width="2" opacity="0.7"/><path d="M 90.73895263671875 538 C 120.10068359375 538, 129.88792724609374 568.4071428571428, 188.61138916015625 538 C 247.33485107421876 507.59285714285716, 227.76036376953124 487.32142857142856, 286.48382568359375 436.64285714285717 C 345.20728759765626 385.96428571428567, 325.63280029296874 450.15714285714284, 384.35626220703125 369.07142857142856 C 443.0797241210937 287.98571428571427, 423.50523681640624 217.03571428571428, 482.22869873046875 166.3571428571429 C 540.9521606445312 115.67857142857139, 521.3776733398438 139.32857142857142, 580.1011352539062 200.1428571428571 C 638.8245971679687 260.9571428571429, 619.2501098632813 277.85, 677.9735717773438 369.07142857142856 C 736.6970336914062 460.29285714285714, 746.48427734375 463.6714285714286, 775.8460083007812 504.2142857142857" fill="none" stroke="red" stroke-width="2" opacity="0.7"/><path d="M 90.73895263671875 538 C 120.10068359375 538, 129.88792724609374 578.5428571428572, 188.61138916015625 538 C 247.33485107421876 497.45714285714286, 227.76036376953124 514.35, 286.48382568359375 402.8571428571429 C 345.20728759765626 291.3642857142857, 325.63280029296874 257.5785714285714, 384.35626220703125 166.3571428571429 C 443.0797241210937 75.1357142857143, 423.50523681640624 58.24285714285719, 482.22869873046875 98.78571428571428 C 540.9521606445312 139.32857142857142, 521.3776733398438 169.73571428571427, 580.1011352539062 301.5 C 638.8245971679687 433.26428571428573, 619.2501098632813 467.05, 677.9735717773438 538 C 736.6970336914062 608.95, 746.48427734375 538, 775.8460083007812 538" fill="none" stroke="green" stroke-width="2" opacity="0.7"/></svg>