<?xml version="1.0" encoding="UTF-8"?>
<svg xmlns="http://www.w3.org/2000/svg" width="1024" height="600" viewBox="0 0 1024 600"><style>
            .chart-text {
                font-family: 'MS Gothic', 'MS PGothic', 'Courier New', Courier, 'Lucida Console', monospace;
            }
        </style><text class="chart-text" x="512" y="24" text-anchor="middle" style="font-size: 14px;">Sales Trends by Store</text><line x1="844.7822265625" y1="58.5" x2="874.7822265625" y2="58.5" stroke="red" stroke-width="2"/><text class="chart-text" x="884.7822265625" y="60" style="font-size: 14px;">Shibuya Store</text><line x1="844.7822265625" y1="83.5" x2="874.7822265625" y2="83.5" stroke="blue" stroke-width="2"/><text class="chart-text" x="884.7822265625" y="85" style="font-size: 14px;">Tokyo Store</text><line x1="844.7822265625" y1="108.5" x2="874.7822265625" y2="108.5" stroke="green" stroke-width="2"/><text class="chart-text" x="884.7822265625" y="110" style="font-size: 14px;">Ueno Store</text><line x1="75.408203125" y1="538" x2="814.7822265625" y2="538" stroke="#000" stroke-width="1"/><line x1="87.33359059979838" y1="538" x2="87.33359059979838" y2="543" stroke="#000" stroke-width="1"/><text class="chart-text" x="87.33359059979838" y="558" text-anchor="middle" style="font-size: 10px;">01</text><text class="chart-text" x="87.33359059979838" y="568" text-anchor="middle" style="font-size: 10px;">2025/01/01</text><line x1="111.18436554939515" y1="538" x2="111.18436554939515" y2="543" stroke="#000" stroke-width="1"/><text class="chart-text" x="111.18436554939515" y="558" text-anchor="middle" style="font-size: 10px;">02</text><line x1="135.03514049899195" y1="538" x2="135.03514049899195" y2="543" stroke="#000" stroke-width="1"/><text class="chart-text" x="135.03514049899195" y="558" text-anchor="middle" style="font-size: 10px;">03</text><line x1="158.88591544858872" y1="538" x2="158.88591544858872" y2="543" stroke="#000" stroke-width="1"/><text class="chart-text" x="158.88591544858872" y="558" text-anchor="middle" style="font-size: 10px;">04</text><line x1="182.7366903981855" y1="538" x2="182.7366903981855" y2="543" stroke="#000" stroke-width="1"/><text class="chart-text" x="182.7366903981855" y="558" text-anchor="middle" style="font-size: 10px;">05</text><line x1="206.58746534778226" y1="538" x2="206.58746534778226" y2="543" stroke="#000" stroke-width="1"/><text class="chart-text" x="206.58746534778226" y="558" text-anchor="middle" style="font-size: 10px;">06</text><line x1="230.43824029737902" y1="538" x2="230.43824029737902" y2="543" stroke="#000" stroke-width="1"/><text class="chart-text" x="230.43824029737902" y="558" text-anchor="middle" style="font-size: 10px;">07</text><line x1="254.28901524697582" y1="538" x2="254.28901524697582" y2="543" stroke="#000" stroke-width="1"/><text class="chart-text" x="254.28901524697582" y="558" text-anchor="middle" style="font-size: 10px;">08</text><line x1="278.13979019657256" y1="538" x2="278.13979019657256" y2="543" stroke="#000" stroke-width="1"/><text class="chart-text" x="278.13979019657256" y="558" text-anchor="middle" style="font-size: 10px;">09</text><line x1="301.9905651461694" y1="538" x2="301.9905651461694" y2="543" stroke="#000" stroke-width="1"/><text class="chart-text" x="301.9905651461694" y="558" text-anchor="middle" style="font-size: 10px;">10</text><line x1="325.8413400957661" y1="538" x2="325.8413400957661" y2="543" stroke="#000" stroke-width="1"/><text class="chart-text" x="325.8413400957661" y="558" text-anchor="middle" style="font-size: 10px;">11</text><line x1="349.6921150453629" y1="538" x2="349.6921150453629" y2="543" stroke="#000" stroke-width="1"/><text class="chart-text" x="349.6921150453629" y="558" text-anchor="middle" style="font-size: 10px;">12</text><line x1="373.54288999495964" y1="538" x2="373.54288999495964" y2="543" stroke="#000" stroke-width="1"/><text class="chart-text" x="373.54288999495964" y="558" text-anchor="middle" style="font-size: 10px;">13</text><line x1="397.39366494455646" y1="538" x2="397.39366494455646" y2="543" stroke="#000" stroke-width="1"/><text class="chart-text" x="397.39366494455646" y="558" text-anchor="middle" style="font-size: 10px;">14</text><line x1="421.24443989415323" y1="538" x2="421.24443989415323" y2="543" stroke="#000" stroke-width="1"/><text class="chart-text" x="421.24443989415323" y="558" text-anchor="middle" style="font-size: 10px;">15</text><line x1="445.09521484375" y1="538" x2="445.09521484375" y2="543" stroke="#000" stroke-width="1"/><text class="chart-text" x="445.09521484375" y="558" text-anchor="middle" style="font-size: 10px;">16</text><line x1="468.94598979334677" y1="538" x2="468.94598979334677" y2="543" stroke="#000" stroke-width="1"/><text class="chart-text" x="468.94598979334677" y="558" text-anchor="middle" style="font-size: 10px;">17</text><line x1="492.7967647429436" y1="538" x2="492.7967647429436" y2="543" stroke="#000" stroke-width="1"/><text class="chart-text" x="492.7967647429436" y="558" text-anchor="middle" style="font-size: 10px;">18</text><line x1="516.6475396925404" y1="538" x2="516.6475396925404" y2="543" stroke="#000" stroke-width="1"/><text class="chart-text" x="516.6475396925404" y="558" text-anchor="middle" style="font-size: 10px;">19</text><line x1="540.4983146421371" y1="538" x2="540.4983146421371" y2="543" stroke="#000" stroke-width="1"/><text class="chart-text" x="540.4983146421371" y="558" text-anchor="middle" style="font-size: 10px;">20</text><line x1="564.3490895917339" y1="538" x2="564.3490895917339" y2="543" stroke="#000" stroke-width="1"/><text class="chart-text" x="564.3490895917339" y="558" text-anchor="middle" style="font-size: 10px;">21</text><line x1="588.1998645413307" y1="538" x2="588.1998645413307" y2="543" stroke="#000" stroke-width="1"/><text class="chart-text" x="588.1998645413307" y="558" text-anchor="middle" style="font-size: 10px;">22</text><line x1="612.0506394909274" y1="538" x2="612.0506394909274" y2="543" stroke="#000" stroke-width="1"/><text class="chart-text" x="612.0506394909274" y="558" text-anchor="middle" style="font-size: 10px;">23</text><line x1="635.9014144405241" y1="538" x2="635.9014144405241" y2="543" stroke="#000" stroke-width="1"/><text class="chart-text" x="635.9014144405241" y="558" text-anchor="middle" style="font-size: 10px;">24</text><line x1="659.752189390121" y1="538" x2="659.752189390121" y2="543" stroke="#000" stroke-width="1"/><text class="chart-text" x="659.752189390121" y="558" text-anchor="middle" style="font-size: 10px;">25</text><line x1="683.6029643397178" y1="538" x2="683.6029643397178" y2="543" stroke="#000" stroke-width="1"/><text class="chart-text" x="683.6029643397178" y="558" text-anchor="middle" style="font-size: 10px;">26</text><line x1="707.4537392893145" y1="538" x2="707.4537392893145" y2="543" stroke="#000" stroke-width="1"/><text class="chart-text" x="707.4537392893145" y="558" text-anchor="middle" style="font-size: 10px;">27</text><line x1="731.3045142389113" y1="538" x2="731.3045142389113" y2="543" stroke="#000" stroke-width="1"/><text class="chart-text" x="731.3045142389113" y="558" text-anchor="middle" style="font-size: 10px;">28</text><line x1="755.155289188508" y1="538" x2="755.155289188508" y2="543" stroke="#000" stroke-width="1"/><text class="chart-text" x="755.155289188508" y="558" text-anchor="middle" style="font-size: 10px;">29</text><line x1="779.0060641381049" y1="538" x2="779.0060641381049" y2="543" stroke="#000" stroke-width="1"/><text class="chart-text" x="779.0060641381049" y="558" text-anchor="middle" style="font-size: 10px;">30</text><line x1="802.8568390877016" y1="538" x2="802.8568390877016" y2="543" stroke="#000" stroke-width="1"/><text class="chart-text" x="802.8568390877016" y="558" text-anchor="middle" style="font-size: 10px;">31</text><line x1="75.408203125" y1="538" x2="75.408203125" y2="46" stroke="#000" stroke-width="1"/><line x1="75.408203125" y1="538" x2="70.408203125" y2="538" stroke="#000" stroke-width="1"/><text class="chart-text" x="65.408203125" y="538" text-anchor="end" dominant-baseline="middle" style="font-size: 10px;">0</text><line x1="75.408203125" y1="509.05882352941177" x2="70.408203125" y2="509.05882352941177" stroke="#000" stroke-width="1"/><text class="chart-text" x="65.408203125" y="509.05882352941177" text-anchor="end" dominant-baseline="middle" style="font-size: 10px;">2,000</text><line x1="75.408203125" y1="480.11764705882354" x2="70.408203125" y2="480.11764705882354" stroke="#000" stroke-width="1"/><text class="chart-text" x="65.408203125" y="480.11764705882354" text-anchor="end" dominant-baseline="middle" style="font-size: 10px;">4,000</text><line x1="75.408203125" y1="451.1764705882353" x2="70.408203125" y2="451.1764705882353" stroke="#000" stroke-width="1"/><text class="chart-text" x="65.408203125" y="451.1764705882353" text-anchor="end" dominant-baseline="middle" style="font-size: 10px;">6,000</text><line x1="75.408203125" y1="422.2352941176471" x2="70.408203125" y2="422.2352941176471" stroke="#000" stroke-width="1"/><text class="chart-text" x="65.408203125" y="422.2352941176471" text-anchor="end" dominant-baseline="middle" style="font-size: 10px;">8,000</text><line x1="75.408203125" y1="393.2941176470588" x2="70.408203125" y2="393.2941176470588" stroke="#000" stroke-width="1"/><text class="chart-text" x="65.408203125" y="393.2941176470588" text-anchor="end" dominant-baseline="middle" style="font-size: 10px;">10,000</text><line x1="75.408203125" y1="364.3529411764706" x2="70.408203125" y2="364.3529411764706" stroke="#000" stroke-width="1"/><text class="chart-text" x="65.408203125" y="364.3529411764706" text-anchor="end" dominant-baseline="middle" style="font-size: 10px;">12,000</text><line x1="75.408203125" y1="335.4117647058824" x2="70.408203125" y2="335.4117647058824" stroke="#000" stroke-width="1"/><text class="chart-text" x="65.408203125" y="335.4117647058824" text-anchor="end" dominant-baseline="middle" style="font-size: 10px;">14,000</text><line x1="75.408203125" y1="306.47058823529414" x2="70.408203125" y2="306.47058823529414" stroke="#000" stroke-width="1"/><text class="chart-text" x="65.408203125" y="306.47058823529414" text-anchor="end" dominant-baseline="middle" style="font-size: 10px;">16,000</text><line x1="75.408203125" y1="277.52941176470586" x2="70.408203125" y2="277.52941176470586" stroke="#000" stroke-width="1"/><text class="chart-text" x="65.408203125" y="277.52941176470586" text-anchor="end" dominant-baseline="middle" style="font-size: 10px;">18,000</text><line x1="75.408203125" y1="248.58823529411762" x2="70.408203125" y2="248.58823529411762" stroke="#000" stroke-width="1"/><text class="chart-text" x="65.408203125" y="248.58823529411762" text-anchor="end" dominant-baseline="middle" style="font-size: 10px;">20,000</text><line x1="75.408203125" y1="219.6470588235294" x2="70.408203125" y2="219.6470588235294" stroke="#000" stroke-width="1"/><text class="chart-text" x="65.408203125" y="219.6470588235294" text-anchor="end" dominant-baseline="middle" style="font-size: 10px;">22,000</text><line x1="75.408203125" y1="190.70588235294116" x2="70.408203125" y2="190.70588235294116" stroke="#000" stroke-width="1"/><text class="chart-text" x="65.408203125" y="190.70588235294116" text-anchor="end" dominant-baseline="middle" style="font-size: 10px;">24,000</text><line x1="75.408203125" y1="161.76470588235298" x2="70.408203125" y2="161.76470588235298" stroke="#000" stroke-width="1"/><text class="chart-text" x="65.408203125" y="161.76470588235298" text-anchor="end" dominant-baseline="middle" style="font-size: 10px;">26,000</text><line x1="75.408203125" y1="132.82352941176475" x2="70.408203125" y2="132.82352941176475" stroke="#000" stroke-width="1"/><text class="chart-text" x="65.408203125" y="132.82352941176475" text-anchor="end" dominant-baseline="middle" style="font-size: 10px;">28,000</text><line x1="75.408203125" y1="103.88235294117646" x2="70.408203125" y2="103.88235294117646" stroke="#000" stroke-width="1"/><text class="chart-text" x="65.408203125" y="103.88235294117646" text-anchor="end" dominant-baseline="middle" style="font-size: 10px;">30,000</text><line x1="75.408203125" y1="74.94117647058823" x2="70.408203125" y2="74.94117647058823" stroke="#000" stroke-width="1"/><text class="chart-text" x="65.408203125" y="74.94117647058823" text-anchor="end" dominant-baseline="middle" style="font-size: 10px;">32,000</text><line x1="75.408203125" y1="46" x2="70.408203125" y2="46" stroke="#000" stroke-width="1"/><text class="chart-text" x="65.408203125" y="46" text-anchor="end" dominant-baseline="middle" style="font-size: 10px;">34,000</text><text class="chart-text" x="75.408203125" y="35" text-anchor="end" style="font-size: 10px;">(USD)</text><line x1="87.33359059979838" y1="46" x2="87.33359059979838" y2="538" stroke="#e0e0e0" stroke-width="1" stroke-dasharray="2,2"/><line x1="111.18436554939515" y1="46" x2="111.18436554939515" y2="538" stroke="#e0e0e0" stroke-width="1" stroke-dasharray="2,2"/><line x1="135.03514049899195" y1="46" x2="135.03514049899195" y2="538" stroke="#e0e0e0" stroke-width="1" stroke-dasharray="2,2"/><line x1="158.88591544858872" y1="46" x2="158.88591544858872" y2="538" stroke="#e0e0e0" stroke-width="1" stroke-dasharray="2,2"/><line x1="182.7366903981855" y1="46" x2="182.7366903981855" y2="538" stroke="#e0e0e0" stroke-width="1" stroke-dasharray="2,2"/><line x1="206.58746534778226" y1="46" x2="206.58746534778226" y2="538" stroke="#e0e0e0" stroke-width="1" stroke-dasharray="2,2"/><line x1="230.43824029737902" y1="46" x2="230.43824029737902" y2="538" stroke="#e0e0e0" stroke-width="1" stroke-dasharray="2,2"/><line x1="254.28901524697582" y1="46" x2="254.28901524697582" y2="538" stroke="#e0e0e0" stroke-width="1" stroke-dasharray="2,2"/><line x1="278.13979019657256" y1="46" x2="278.13979019657256" y2="538" stroke="#e0e0e0" stroke-width="1" stroke-dasharray="2,2"/><line x1="301.9905651461694" y1="46" x2="301.9905651461694" y2="538" stroke="#e0e0e0" stroke-width="1" stroke-dasharray="2,2"/><line x1="325.8413400957661" y1="46" x2="325.8413400957661" y2="538" stroke="#e0e0e0" stroke-width="1" stroke-dasharray="2,2"/><line x1="349.6921150453629" y1="46" x2="349.6921150453629" y2="538" stroke="#e0e0e0" stroke-width="1" stroke-dasharray="2,2"/><line x1="373.54288999495964" y1="46" x2="373.54288999495964" y2="538" stroke="#e0e0e0" stroke-width="1" stroke-dasharray="2,2"/><line x1="397.39366494455646" y1="46" x2="397.39366494455646" y2="538" stroke="#e0e0e0" stroke-width="1" stroke-dasharray="2,2"/><line x1="421.24443989415323" y1="46" x2="421.24443989415323" y2="538" stroke="#e0e0e0" stroke-width="1" stroke-dasharray="2,2"/><line x1="445.09521484375" y1="46" x2="445.09521484375" y2="538" stroke="#e0e0e0" stroke-width="1" stroke-dasharray="2,2"/><line x1="468.94598979334677" y1="46" x2="468.94598979334677" y2="538" stroke="#e0e0e0" stroke-width="1" stroke-dasharray="2,2"/><line x1="492.7967647429436" y1="46" x2="492.7967647429436" y2="538" stroke="#e0e0e0" stroke-width="1" stroke-dasharray="2,2"/><line x1="516.6475396925404" y1="46" x2="516.6475396925404" y2="538" stroke="#e0e0e0" stroke-width="1" stroke-dasharray="2,2"/><line x1="540.4983146421371" y1="46" x2="540.4983146421371" y2="538" stroke="#e0e0e0" stroke-width="1" stroke-dasharray="2,2"/><line x1="564.3490895917339" y1="46" x2="564.3490895917339" y2="538" stroke="#e0e0e0" stroke-width="1" stroke-dasharray="2,2"/><line x1="588.1998645413307" y1="46" x2="588.1998645413307" y2="538" stroke="#e0e0e0" stroke-width="1" stroke-dasharray="2,2"/><line x1="612.0506394909274" y1="46" x2="612.0506394909274" y2="538" stroke="#e0e0e0" stroke-width="1" stroke-dasharray="2,2"/><line x1="635.9014144405241" y1="46" x2="635.9014144405241" y2="538" stroke="#e0e0e0" stroke-width="1" stroke-dasharray="2,2"/><line x1="659.752189390121" y1="46" x2="659.752189390121" y2="538" stroke="#e0e0e0" stroke-width="1" stroke-dasharray="2,2"/><line x1="683.6029643397178" y1="46" x2="683.6029643397178" y2="538" stroke="#e0e0e0" stroke-width="1" stroke-dasharray="2,2"/><line x1="707.4537392893145" y1="46" x2="707.4537392893145" y2="538" stroke="#e0e0e0" stroke-width="1" stroke-dasharray="2,2"/><line x1="731.3045142389113" y1="46" x2="731.3045142389113" y2="538" stroke="#e0e0e0" stroke-width="1" stroke-dasharray="2,2"/><line x1="755.155289188508" y1="46" x2="755.155289188508" y2="538" stroke="#e0e0e0" stroke-width="1" stroke-dasharray="2,2"/><line x1="779.0060641381049" y1="46" x2="779.0060641381049" y2="538" stroke="#e0e0e0" stroke-width="1" stroke-dasharray="2,2"/><line x1="802.8568390877016" y1="46" x2="802.8568390877016" y2="538" stroke="#e0e0e0" stroke-width="1" stroke-dasharray="2,2"/><line x1="75.408203125" y1="538" x2="814.7822265625" y2="538" stroke="#e0e0e0" stroke-width="1" stroke-dasharray="2,2"/><line x1="75.408203125" y1="509.05882352941177" x2="814.7822265625" y2="509.05882352941177" stroke="#e0e0e0" stroke-width="1" stroke-dasharray="2,2"/><line x1="75.408203125" y1="480.11764705882354" x2="814.7822265625" y2="480.11764705882354" stroke="#e0e0e0" stroke-width="1" stroke-dasharray="2,2"/><line x1="75.408203125" y1="451.1764705882353" x2="814.7822265625" y2="451.1764705882353" stroke="#e0e0e0" stroke-width="1" stroke-dasharray="2,2"/><line x1="75.408203125" y1="422.2352941176471" x2="814.7822265625" y2="422.2352941176471" stroke="#e0e0e0" stroke-width="1" stroke-dasharray="2,2"/><line x1="75.408203125" y1="393.2941176470588" x2="814.7822265625" y2="393.2941176470588" stroke="#e0e0e0" stroke-width="1" stroke-dasharray="2,2"/><line x1="75.408203125" y1="364.3529411764706" x2="814.7822265625" y2="364.3529411764706" stroke="#e0e0e0" stroke-width="1" stroke-dasharray="2,2"/><line x1="75.408203125" y1="335.4117647058824" x2="814.7822265625" y2="335.4117647058824" stroke="#e0e0e0" stroke-width="1" stroke-dasharray="2,2"/><line x1="75.408203125" y1="306.47058823529414" x2="814.7822265625" y2="306.47058823529414" stroke="#e0e0e0" stroke-width="1" stroke-dasharray="2,2"/><line x1="75.408203125" y1="277.52941176470586" x2="814.7822265625" y2="277.52941176470586" stroke="#e0e0e0" stroke-width="1" stroke-dasharray="2,2"/><line x1="75.408203125" y1="248.58823529411762" x2="814.7822265625" y2="248.58823529411762" stroke="#e0e0e0" stroke-width="1" stroke-dasharray="2,2"/><line x1="75.408203125" y1="219.6470588235294" x2="814.7822265625" y2="219.6470588235294" stroke="#e0e0e0" stroke-width="1" stroke-dasharray="2,2"/><line x1="75.408203125" y1="190.70588235294116" x2="814.7822265625" y2="190.70588235294116" stroke="#e0e0e0" stroke-width="1" stroke-dasharray="2,2"/><line x1="75.408203125" y1="161.76470588235298" x2="814.7822265625" y2="161.76470588235298" stroke="#e0e0e0" stroke-width="1" stroke-dasharray="2,2"/><line x1="75.408203125" y1="132.82352941176475" x2="814.7822265625" y2="132.82352941176475" stroke="#e0e0e0" stroke-width="1" stroke-dasharray="2,2"/><line x1="75.408203125" y1="103.88235294117646" x2="814.7822265625" y2="103.88235294117646" stroke="#e0e0e0" stroke-width="1" stroke-dasharray="2,2"/><line x1="75.408203125" y1="74.94117647058823" x2="814.7822265625" y2="74.94117647058823" stroke="#e0e0e0" stroke-width="1" stroke-dasharray="2,2"/><line x1="75.408203125" y1="46" x2="814.7822265625" y2="46" stroke="#e0e0e0" stroke-width="1" stroke-dasharray="2,2"/><path d="M 87.33359059979838 364.3529411764706 L 111.18436554939515 320.94117647058823 L 135.03514049899195 277.52941176470586 L 158.88591544858872 335.4117647058824 L 182.7366903981855 248.58823529411762 L 206.58746534778226 306.47058823529414 L 230.43824029737902 219.6470588235294 L 254.28901524697582 277.52941176470586 L 278.13979019657256 190.70588235294116 L 301.9905651461694 248.58823529411762 L 325.8413400957661 161.76470588235298 L 349.6921150453629 219.6470588235294 L 373.54288999495964 277.52941176470586 L 397.39366494455646 306.47058823529414 L 421.24443989415323 248.58823529411762 L 445.09521484375 190.70588235294116 L 468.94598979334677 132.82352941176475 L 492.7967647429436 176.23529411764702 L 516.6475396925404 219.6470588235294 L 540.4983146421371 263.05882352941177 L 564.3490895917339 205.17647058823525 L 588.1998645413307 147.29411764705884 L 612.0506394909274 161.76470588235298 L 635.9014144405241 190.70588235294116 L 659.752189390121 234.11764705882354 L 683.6029643397178 176.23529411764702 L 707.4537392893145 132.82352941176475 L 731.3045142389113 161.76470588235298 L 755.155289188508 190.70588235294116 L 779.0060641381049 147.29411764705884 L 802.8568390877016 118.35294117647061" stroke="red" stroke-width="2" fill="none"/><circle cx="87.33359059979838" cy="364.3529411764706" r="4" fill="red" stroke="#fff" stroke-width="1"><title>2025/01/01
12,000 New Year</title></circle><circle cx="111.18436554939515" cy="320.94117647058823" r="4" fill="red" stroke="#fff" stroke-width="1"><title>2025/01/02
15,000</title></circle><circle cx="135.03514049899195" cy="277.52941176470586" r="4" fill="red" stroke="#fff" stroke-width="1"><title>2025/01/03
18,000</title></circle><circle cx="158.88591544858872" cy="335.4117647058824" r="4" fill="red" stroke="#fff" stroke-width="1"><title>2025/01/04
14,000</title></circle><circle cx="182.7366903981855" cy="248.58823529411762" r="4" fill="red" stroke="#fff" stroke-width="1"><title>2025/01/05
20,000</title></circle><circle cx="206.58746534778226" cy="306.47058823529414" r="4" fill="red" stroke="#fff" stroke-width="1"><title>2025/01/06
16,000</title></circle><circle cx="230.43824029737902" cy="219.6470588235294" r="4" fill="red" stroke="#fff" stroke-width="1"><title>2025/01/07
22,000</title></circle><circle cx="254.28901524697582" cy="277.52941176470586" r="4" fill="red" stroke="#fff" stroke-width="1"><title>2025/01/08
18,000</title></circle><circle cx="278.13979019657256" cy="190.70588235294116" r="4" fill="red" stroke="#fff" stroke-width="1"><title>2025/01/09
24,000</title></circle><circle cx="301.9905651461694" cy="248.58823529411762" r="4" fill="red" stroke="#fff" stroke-width="1"><title>2025/01/10
20,000</title></circle><circle cx="325.8413400957661" cy="161.76470588235298" r="4" fill="red" stroke="#fff" stroke-width="1"><title>2025/01/11
26,000 Coming of Age Day</title></circle><circle cx="349.6921150453629" cy="219.6470588235294" r="4" fill="red" stroke="#fff" stroke-width="1"><title>2025/01/12
22,000</title></circle><circle cx="373.54288999495964" cy="277.52941176470586" r="4" fill="red" stroke="#fff" stroke-width="1"><title>2025/01/13
18,000</title></circle><circle cx="397.39366494455646" cy="306.47058823529414" r="4" fill="red" stroke="#fff" stroke-width="1"><title>2025/01/14
16,000</title></circle><circle cx="421.24443989415323" cy="248.58823529411762" r="4" fill="red" stroke="#fff" stroke-width="1"><title>2025/01/15
20,000</title></circle><circle cx="445.09521484375" cy="190.70588235294116" r="4" fill="red" stroke="#fff" stroke-width="1"><title>2025/01/16
24,000</title></circle><circle cx="468.94598979334677" cy="132.82352941176475" r="4" fill="red" stroke="#fff" stroke-width="1"><title>2025/01/17
28,000</title></circle><circle cx="492.7967647429436" cy="176.23529411764702" r="4" fill="red" stroke="#fff" stroke-width="1"><title>2025/01/18
25,000</title></circle><circle cx="516.6475396925404" cy="219.6470588235294" r="4" fill="red" stroke="#fff" stroke-width="1"><title>2025/01/19
22,000</title></circle><circle cx="540.4983146421371" cy="263.05882352941177" r="4" fill="red" stroke="#fff" stroke-width="1"><title>2025/01/20
19,000</title></circle><circle cx="564.3490895917339" cy="205.17647058823525" r="4" fill="red" stroke="#fff" stroke-width="1"><title>2025/01/21
23,000</title></circle><circle cx="588.1998645413307" cy="147.29411764705884" r="4" fill="red" stroke="#fff" stroke-width="1"><title>2025/01/22
27,000</title></circle><circle cx="612.0506394909274" cy="161.76470588235298" r="4" fill="red" stroke="#fff" stroke-width="1"><title>2025/01/23
26,000</title></circle><circle cx="635.9014144405241" cy="190.70588235294116" r="4" fill="red" stroke="#fff" stroke-width="1"><title>2025/01/24
24,000</title></circle><circle cx="659.752189390121" cy="234.11764705882354" r="4" fill="red" stroke="#fff" stroke-width="1"><title>2025/01/25
21,000</title></circle><circle cx="683.6029643397178" cy="176.23529411764702" r="4" fill="red" stroke="#fff" stroke-width="1"><title>2025/01/26
25,000</title></circle><circle cx="707.4537392893145" cy="132.82352941176475" r="4" fill="red" stroke="#fff" stroke-width="1"><title>2025/01/27
28,000</title></circle><circle cx="731.3045142389113" cy="161.76470588235298" r="4" fill="red" stroke="#fff" stroke-width="1"><title>2025/01/28
26,000</title></circle><circle cx="755.155289188508" cy="190.70588235294116" r="4" fill="red" stroke="#fff" stroke-width="1"><title>2025/01/29
24,000</title></circle><circle cx="779.0060641381049" cy="147.29411764705884" r="4" fill="red" stroke="#fff" stroke-width="1"><title>2025/01/30
27,000</title></circle><circle cx="802.8568390877016" cy="118.35294117647061" r="4" fill="red" stroke="#fff" stroke-width="1"><title>2025/01/31
29,000</title></circle><text class="chart-text" x="87.33359059979838" y="354.3529411764706" text-anchor="middle" dominant-baseline="hanging" style="font-size: 10px; fill: red;">New Year</text><text class="chart-text" x="325.8413400957661" y="151.76470588235298" text-anchor="middle" dominant-baseline="hanging" style="font-size: 10px; fill: red;">Coming of Age Day</text><path d="M 87.33359059979838 219.6470588235294 L 111.18436554939515 197.94117647058823 L 135.03514049899195 176.23529411764702 L 158.88591544858872 183.47058823529414 L 182.7366903981855 161.76470588235298 L 206.58746534778226 169 L 230.43824029737902 147.29411764705884 L 254.28901524697582 154.52941176470586 L 278.13979019657256 132.82352941176475 L 301.9905651461694 140.05882352941177 L 325.8413400957661 118.35294117647061 L 349.6921150453629 125.58823529411762 L 373.54288999495964 103.88235294117646 L 397.39366494455646 111.11764705882354 L 421.24443989415323 132.82352941176475 L 445.09521484375 140.05882352941177 L 468.94598979334677 118.35294117647061 L 492.7967647429436 125.58823529411762 L 516.6475396925404 103.88235294117646 L 540.4983146421371 111.11764705882354 L 564.3490895917339 89.41176470588238 L 588.1998645413307 96.64705882352939 L 612.0506394909274 74.94117647058823 L 635.9014144405241 82.17647058823525 L 659.752189390121 103.88235294117646 L 683.6029643397178 118.35294117647061 L 707.4537392893145 96.64705882352939 L 731.3045142389113 89.41176470588238 L 755.155289188508 82.17647058823525 L 779.0060641381049 74.94117647058823 L 802.8568390877016 67.70588235294116" stroke="blue" stroke-width="2" fill="none"/><circle cx="87.33359059979838" cy="219.6470588235294" r="4" fill="blue" stroke="#fff" stroke-width="1"><title>2025/01/01
22,000 New Year</title></circle><circle cx="111.18436554939515" cy="197.94117647058823" r="4" fill="blue" stroke="#fff" stroke-width="1"><title>2025/01/02
23,500</title></circle><circle cx="135.03514049899195" cy="176.23529411764702" r="4" fill="blue" stroke="#fff" stroke-width="1"><title>2025/01/03
25,000</title></circle><circle cx="158.88591544858872" cy="183.47058823529414" r="4" fill="blue" stroke="#fff" stroke-width="1"><title>2025/01/04
24,500</title></circle><circle cx="182.7366903981855" cy="161.76470588235298" r="4" fill="blue" stroke="#fff" stroke-width="1"><title>2025/01/05
26,000</title></circle><circle cx="206.58746534778226" cy="169" r="4" fill="blue" stroke="#fff" stroke-width="1"><title>2025/01/06
25,500</title></circle><circle cx="230.43824029737902" cy="147.29411764705884" r="4" fill="blue" stroke="#fff" stroke-width="1"><title>2025/01/07
27,000</title></circle><circle cx="254.28901524697582" cy="154.52941176470586" r="4" fill="blue" stroke="#fff" stroke-width="1"><title>2025/01/08
26,500</title></circle><circle cx="278.13979019657256" cy="132.82352941176475" r="4" fill="blue" stroke="#fff" stroke-width="1"><title>2025/01/09
28,000</title></circle><circle cx="301.9905651461694" cy="140.05882352941177" r="4" fill="blue" stroke="#fff" stroke-width="1"><title>2025/01/10
27,500</title></circle><circle cx="325.8413400957661" cy="118.35294117647061" r="4" fill="blue" stroke="#fff" stroke-width="1"><title>2025/01/11
29,000 Coming of Age Day</title></circle><circle cx="349.6921150453629" cy="125.58823529411762" r="4" fill="blue" stroke="#fff" stroke-width="1"><title>2025/01/12
28,500</title></circle><circle cx="373.54288999495964" cy="103.88235294117646" r="4" fill="blue" stroke="#fff" stroke-width="1"><title>2025/01/13
30,000</title></circle><circle cx="397.39366494455646" cy="111.11764705882354" r="4" fill="blue" stroke="#fff" stroke-width="1"><title>2025/01/14
29,500</title></circle><circle cx="421.24443989415323" cy="132.82352941176475" r="4" fill="blue" stroke="#fff" stroke-width="1"><title>2025/01/15
28,000</title></circle><circle cx="445.09521484375" cy="140.05882352941177" r="4" fill="blue" stroke="#fff" stroke-width="1"><title>2025/01/16
27,500</title></circle><circle cx="468.94598979334677" cy="118.35294117647061" r="4" fill="blue" stroke="#fff" stroke-width="1"><title>2025/01/17
29,000</title></circle><circle cx="492.7967647429436" cy="125.58823529411762" r="4" fill="blue" stroke="#fff" stroke-width="1"><title>2025/01/18
28,500</title></circle><circle cx="516.6475396925404" cy="103.88235294117646" r="4" fill="blue" stroke="#fff" stroke-width="1"><title>2025/01/19
30,000</title></circle><circle cx="540.4983146421371" cy="111.11764705882354" r="4" fill="blue" stroke="#fff" stroke-width="1"><title>2025/01/20
29,500</title></circle><circle cx="564.3490895917339" cy="89.41176470588238" r="4" fill="blue" stroke="#fff" stroke-width="1"><title>2025/01/21
31,000</title></circle><circle cx="588.1998645413307" cy="96.64705882352939" r="4" fill="blue" stroke="#fff" stroke-width="1"><title>2025/01/22
30,500</title></circle><circle cx="612.0506394909274" cy="74.94117647058823" r="4" fill="blue" stroke="#fff" stroke-width="1"><title>2025/01/23
32,000</title></circle><circle cx="635.9014144405241" cy="82.17647058823525" r="4" fill="blue" stroke="#fff" stroke-width="1"><title>2025/01/24
31,500</title></circle><circle cx="659.752189390121" cy="103.88235294117646" r="4" fill="blue" stroke="#fff" stroke-width="1"><title>2025/01/25
30,000</title></circle><circle cx="683.6029643397178" cy="118.35294117647061" r="4" fill="blue" stroke="#fff" stroke-width="1"><title>2025/01/26
29,000</title></circle><circle cx="707.4537392893145" cy="96.64705882352939" r="4" fill="blue" stroke="#fff" stroke-width="1"><title>2025/01/27
30,500</title></circle><circle cx="731.3045142389113" cy="89.41176470588238" r="4" fill="blue" stroke="#fff" stroke-width="1"><title>2025/01/28
31,000</title></circle><circle cx="755.155289188508" cy="82.17647058823525" r="4" fill="blue" stroke="#fff" stroke-width="1"><title>2025/01/29
31,500</title></circle><circle cx="779.0060641381049" cy="74.94117647058823" r="4" fill="blue" stroke="#fff" stroke-width="1"><title>2025/01/30
32,000</title></circle><circle cx="802.8568390877016" cy="67.70588235294116" r="4" fill="blue" stroke="#fff" stroke-width="1"><title>2025/01/31
32,500</title></circle><text class="chart-text" x="87.33359059979838" y="209.6470588235294" text-anchor="middle" dominant-baseline="hanging" style="font-size: 10px; fill: blue;">New Year</text><text class="chart-text" x="325.8413400957661" y="108.35294117647061" text-anchor="middle" dominant-baseline="hanging" style="font-size: 10px; fill: blue;">Coming of Age Day</text><path d="M 87.33359059979838 277.52941176470586 L 111.18436554939515 255.82352941176475 L 135.03514049899195 234.11764705882354 L 158.88591544858872 241.3529411764706 L 182.7366903981855 219.6470588235294 L 206.58746534778226 226.88235294117646 L 230.43824029737902 205.17647058823525 L 254.28901524697582 212.41176470588238 L 278.13979019657256 190.70588235294116 L 301.9905651461694 197.94117647058823 L 325.8413400957661 176.23529411764702 L 349.6921150453629 183.47058823529414 L 373.54288999495964 205.17647058823525 L 397.39366494455646 219.6470588235294 L 421.24443989415323 197.94117647058823 L 445.09521484375 190.70588235294116 L 468.94598979334677 176.23529411764702 L 492.7967647429436 183.47058823529414 L 516.6475396925404 161.76470588235298 L 540.4983146421371 169 L 564.3490895917339 147.29411764705884 L 588.1998645413307 154.52941176470586 L 612.0506394909274 132.82352941176475 L 635.9014144405241 140.05882352941177 L 659.752189390121 161.76470588235298 L 683.6029643397178 176.23529411764702 L 707.4537392893145 154.52941176470586 L 731.3045142389113 147.29411764705884 L 755.155289188508 140.05882352941177 L 779.0060641381049 132.82352941176475 L 802.8568390877016 125.58823529411762" stroke="green" stroke-width="2" fill="none"/><circle cx="87.33359059979838" cy="277.52941176470586" r="4" fill="green" stroke="#fff" stroke-width="1"><title>2025/01/01
18,000 New Year</title></circle><circle cx="111.18436554939515" cy="255.82352941176475" r="4" fill="green" stroke="#fff" stroke-width="1"><title>2025/01/02
19,500</title></circle><circle cx="135.03514049899195" cy="234.11764705882354" r="4" fill="green" stroke="#fff" stroke-width="1"><title>2025/01/03
21,000</title></circle><circle cx="158.88591544858872" cy="241.3529411764706" r="4" fill="green" stroke="#fff" stroke-width="1"><title>2025/01/04
20,500</title></circle><circle cx="182.7366903981855" cy="219.6470588235294" r="4" fill="green" stroke="#fff" stroke-width="1"><title>2025/01/05
22,000</title></circle><circle cx="206.58746534778226" cy="226.88235294117646" r="4" fill="green" stroke="#fff" stroke-width="1"><title>2025/01/06
21,500</title></circle><circle cx="230.43824029737902" cy="205.17647058823525" r="4" fill="green" stroke="#fff" stroke-width="1"><title>2025/01/07
23,000</title></circle><circle cx="254.28901524697582" cy="212.41176470588238" r="4" fill="green" stroke="#fff" stroke-width="1"><title>2025/01/08
22,500</title></circle><circle cx="278.13979019657256" cy="190.70588235294116" r="4" fill="green" stroke="#fff" stroke-width="1"><title>2025/01/09
24,000</title></circle><circle cx="301.9905651461694" cy="197.94117647058823" r="4" fill="green" stroke="#fff" stroke-width="1"><title>2025/01/10
23,500</title></circle><circle cx="325.8413400957661" cy="176.23529411764702" r="4" fill="green" stroke="#fff" stroke-width="1"><title>2025/01/11
25,000 Coming of Age Day</title></circle><circle cx="349.6921150453629" cy="183.47058823529414" r="4" fill="green" stroke="#fff" stroke-width="1"><title>2025/01/12
24,500</title></circle><circle cx="373.54288999495964" cy="205.17647058823525" r="4" fill="green" stroke="#fff" stroke-width="1"><title>2025/01/13
23,000</title></circle><circle cx="397.39366494455646" cy="219.6470588235294" r="4" fill="green" stroke="#fff" stroke-width="1"><title>2025/01/14
22,000</title></circle><circle cx="421.24443989415323" cy="197.94117647058823" r="4" fill="green" stroke="#fff" stroke-width="1"><title>2025/01/15
23,500</title></circle><circle cx="445.09521484375" cy="190.70588235294116" r="4" fill="green" stroke="#fff" stroke-width="1"><title>2025/01/16
24,000</title></circle><circle cx="468.94598979334677" cy="176.23529411764702" r="4" fill="green" stroke="#fff" stroke-width="1"><title>2025/01/17
25,000</title></circle><circle cx="492.7967647429436" cy="183.47058823529414" r="4" fill="green" stroke="#fff" stroke-width="1"><title>2025/01/18
24,500</title></circle><circle cx="516.6475396925404" cy="161.76470588235298" r="4" fill="green" stroke="#fff" stroke-width="1"><title>2025/01/19
26,000</title></circle><circle cx="540.4983146421371" cy="169" r="4" fill="green" stroke="#fff" stroke-width="1"><title>2025/01/20
25,500</title></circle><circle cx="564.3490895917339" cy="147.29411764705884" r="4" fill="green" stroke="#fff" stroke-width="1"><title>2025/01/21
27,000</title></circle><circle cx="588.1998645413307" cy="154.52941176470586" r="4" fill="green" stroke="#fff" stroke-width="1"><title>2025/01/22
26,500</title></circle><circle cx="612.0506394909274" cy="132.82352941176475" r="4" fill="green" stroke="#fff" stroke-width="1"><title>2025/01/23
28,000</title></circle><circle cx="635.9014144405241" cy="140.05882352941177" r="4" fill="green" stroke="#fff" stroke-width="1"><title>2025/01/24
27,500</title></circle><circle cx="659.752189390121" cy="161.76470588235298" r="4" fill="green" stroke="#fff" stroke-width="1"><title>2025/01/25
26,000</title></circle><circle cx="683.6029643397178" cy="176.23529411764702" r="4" fill="green" stroke="#fff" stroke-width="1"><title>2025/01/26
25,000</title></circle><circle cx="707.4537392893145" cy="154.52941176470586" r="4" fill="green" stroke="#fff" stroke-width="1"><title>2025/01/27
26,500</title></circle><circle cx="731.3045142389113" cy="147.29411764705884" r="4" fill="green" stroke="#fff" stroke-width="1"><title>2025/01/28
27,000</title></circle><circle cx="755.155289188508" cy="140.05882352941177" r="4" fill="green" stroke="#fff" stroke-width="1"><title>2025/01/29
27,500</title></circle><circle cx="779.0060641381049" cy="132.82352941176475" r="4" fill="green" stroke="#fff" stroke-width="1"><title>2025/01/30
28,000</title></circle><circle cx="802.8568390877016" cy="125.58823529411762" r="4" fill="green" stroke="#fff" stroke-width="1"><title>2025/01/31
28,500</title></circle><text class="chart-text" x="87.33359059979838" y="267.52941176470586" text-anchor="middle" dominant-baseline="hanging" style="font-size: 10px; fill: green;">New Year</text><text class="chart-text" x="325.8413400957661" y="166.23529411764702" text-anchor="middle" dominant-baseline="hanging" style="font-size: 10px; fill: green;">Coming of Age Day</text></svg>